<mxfile host="app.diagrams.net" modified="2022-05-27T08:49:13.542Z" agent="5.0 (Macintosh; Intel Mac OS X 10_15_7) AppleWebKit/537.36 (KHTML, like Gecko) Chrome/100.0.4896.151 Whale/3.14.134.62 Safari/537.36" etag="xL0nVq7oGdbPSKS2_HEz" version="18.1.1" type="github">
  <diagram id="R2lEEEUBdFMjLlhIrx00" name="Page-1">
    <mxGraphModel dx="1252" dy="674" grid="1" gridSize="10" guides="1" tooltips="1" connect="1" arrows="1" fold="1" page="1" pageScale="1" pageWidth="850" pageHeight="1100" math="0" shadow="0" extFonts="Permanent Marker^https://fonts.googleapis.com/css?family=Permanent+Marker">
      <root>
        <mxCell id="0" />
        <mxCell id="1" parent="0" />
        <mxCell id="DNe0UOwhw_iVBu4ZQgte-1" value="회원" style="whiteSpace=wrap;html=1;align=center;" parent="1" vertex="1">
          <mxGeometry x="300" y="130" width="100" height="40" as="geometry" />
        </mxCell>
        <mxCell id="DNe0UOwhw_iVBu4ZQgte-2" value="국가" style="whiteSpace=wrap;html=1;align=center;" parent="1" vertex="1">
          <mxGeometry x="180" y="365" width="100" height="40" as="geometry" />
        </mxCell>
        <mxCell id="DNe0UOwhw_iVBu4ZQgte-13" style="edgeStyle=none;rounded=0;orthogonalLoop=1;jettySize=auto;html=1;entryX=0.5;entryY=1;entryDx=0;entryDy=0;endArrow=none;endFill=0;" parent="1" source="DNe0UOwhw_iVBu4ZQgte-7" target="DNe0UOwhw_iVBu4ZQgte-1" edge="1">
          <mxGeometry relative="1" as="geometry" />
        </mxCell>
        <mxCell id="DNe0UOwhw_iVBu4ZQgte-7" value="회원아이디" style="ellipse;whiteSpace=wrap;html=1;align=center;fontStyle=4;" parent="1" vertex="1">
          <mxGeometry x="60" y="220" width="100" height="40" as="geometry" />
        </mxCell>
        <mxCell id="DNe0UOwhw_iVBu4ZQgte-14" style="edgeStyle=none;rounded=0;orthogonalLoop=1;jettySize=auto;html=1;entryX=0.5;entryY=1;entryDx=0;entryDy=0;endArrow=none;endFill=0;" parent="1" source="DNe0UOwhw_iVBu4ZQgte-8" target="DNe0UOwhw_iVBu4ZQgte-1" edge="1">
          <mxGeometry relative="1" as="geometry" />
        </mxCell>
        <mxCell id="DNe0UOwhw_iVBu4ZQgte-8" value="이름" style="ellipse;whiteSpace=wrap;html=1;align=center;" parent="1" vertex="1">
          <mxGeometry x="270" y="220" width="100" height="40" as="geometry" />
        </mxCell>
        <mxCell id="DNe0UOwhw_iVBu4ZQgte-15" style="edgeStyle=none;rounded=0;orthogonalLoop=1;jettySize=auto;html=1;entryX=0.44;entryY=1.05;entryDx=0;entryDy=0;entryPerimeter=0;endArrow=none;endFill=0;" parent="1" source="DNe0UOwhw_iVBu4ZQgte-9" target="DNe0UOwhw_iVBu4ZQgte-1" edge="1">
          <mxGeometry relative="1" as="geometry" />
        </mxCell>
        <mxCell id="DNe0UOwhw_iVBu4ZQgte-9" value="이메일" style="ellipse;whiteSpace=wrap;html=1;align=center;" parent="1" vertex="1">
          <mxGeometry x="370" y="220" width="100" height="40" as="geometry" />
        </mxCell>
        <mxCell id="DNe0UOwhw_iVBu4ZQgte-16" style="edgeStyle=none;rounded=0;orthogonalLoop=1;jettySize=auto;html=1;entryX=0.5;entryY=1;entryDx=0;entryDy=0;endArrow=none;endFill=0;" parent="1" source="DNe0UOwhw_iVBu4ZQgte-10" target="DNe0UOwhw_iVBu4ZQgte-1" edge="1">
          <mxGeometry relative="1" as="geometry" />
        </mxCell>
        <mxCell id="DNe0UOwhw_iVBu4ZQgte-10" value="전화번호" style="ellipse;whiteSpace=wrap;html=1;align=center;" parent="1" vertex="1">
          <mxGeometry x="480" y="220" width="100" height="40" as="geometry" />
        </mxCell>
        <mxCell id="DNe0UOwhw_iVBu4ZQgte-29" style="edgeStyle=none;rounded=0;orthogonalLoop=1;jettySize=auto;html=1;entryX=0.5;entryY=1;entryDx=0;entryDy=0;endArrow=none;endFill=0;" parent="1" source="DNe0UOwhw_iVBu4ZQgte-18" target="DNe0UOwhw_iVBu4ZQgte-26" edge="1">
          <mxGeometry relative="1" as="geometry" />
        </mxCell>
        <mxCell id="DNe0UOwhw_iVBu4ZQgte-18" value="도시 이름" style="ellipse;whiteSpace=wrap;html=1;align=center;" parent="1" vertex="1">
          <mxGeometry x="560" y="435" width="100" height="40" as="geometry" />
        </mxCell>
        <mxCell id="DNe0UOwhw_iVBu4ZQgte-28" style="edgeStyle=none;rounded=0;orthogonalLoop=1;jettySize=auto;html=1;entryX=0.5;entryY=1;entryDx=0;entryDy=0;endArrow=none;endFill=0;" parent="1" source="DNe0UOwhw_iVBu4ZQgte-19" target="DNe0UOwhw_iVBu4ZQgte-26" edge="1">
          <mxGeometry relative="1" as="geometry" />
        </mxCell>
        <mxCell id="DNe0UOwhw_iVBu4ZQgte-19" value="도시 코드" style="ellipse;whiteSpace=wrap;html=1;align=center;fontStyle=4;" parent="1" vertex="1">
          <mxGeometry x="430" y="435" width="100" height="40" as="geometry" />
        </mxCell>
        <mxCell id="DNe0UOwhw_iVBu4ZQgte-22" style="edgeStyle=none;rounded=0;orthogonalLoop=1;jettySize=auto;html=1;entryX=0.5;entryY=1;entryDx=0;entryDy=0;endArrow=none;endFill=0;" parent="1" source="DNe0UOwhw_iVBu4ZQgte-20" target="DNe0UOwhw_iVBu4ZQgte-2" edge="1">
          <mxGeometry relative="1" as="geometry" />
        </mxCell>
        <mxCell id="DNe0UOwhw_iVBu4ZQgte-20" value="국가 코드" style="ellipse;whiteSpace=wrap;html=1;align=center;fontStyle=4;" parent="1" vertex="1">
          <mxGeometry x="120" y="425" width="100" height="40" as="geometry" />
        </mxCell>
        <mxCell id="DNe0UOwhw_iVBu4ZQgte-23" style="edgeStyle=none;rounded=0;orthogonalLoop=1;jettySize=auto;html=1;entryX=0.5;entryY=1;entryDx=0;entryDy=0;endArrow=none;endFill=0;" parent="1" source="DNe0UOwhw_iVBu4ZQgte-21" target="DNe0UOwhw_iVBu4ZQgte-2" edge="1">
          <mxGeometry relative="1" as="geometry" />
        </mxCell>
        <mxCell id="DNe0UOwhw_iVBu4ZQgte-21" value="국가 이름" style="ellipse;whiteSpace=wrap;html=1;align=center;" parent="1" vertex="1">
          <mxGeometry x="240" y="425" width="100" height="40" as="geometry" />
        </mxCell>
        <mxCell id="DNe0UOwhw_iVBu4ZQgte-26" value="도시" style="shape=ext;margin=3;double=1;whiteSpace=wrap;html=1;align=center;" parent="1" vertex="1">
          <mxGeometry x="500" y="365" width="100" height="40" as="geometry" />
        </mxCell>
        <mxCell id="DNe0UOwhw_iVBu4ZQgte-35" value="" style="endArrow=none;html=1;rounded=0;exitX=1;exitY=0.5;exitDx=0;exitDy=0;" parent="1" source="DNe0UOwhw_iVBu4ZQgte-2" edge="1">
          <mxGeometry width="50" height="50" relative="1" as="geometry">
            <mxPoint x="280" y="325" as="sourcePoint" />
            <mxPoint x="340" y="385" as="targetPoint" />
          </mxGeometry>
        </mxCell>
        <mxCell id="DNe0UOwhw_iVBu4ZQgte-36" value="" style="endArrow=none;html=1;rounded=0;exitX=1;exitY=0.5;exitDx=0;exitDy=0;entryX=0;entryY=0.5;entryDx=0;entryDy=0;" parent="1" target="DNe0UOwhw_iVBu4ZQgte-26" edge="1">
          <mxGeometry width="50" height="50" relative="1" as="geometry">
            <mxPoint x="460" y="385" as="sourcePoint" />
            <mxPoint x="480" y="415" as="targetPoint" />
          </mxGeometry>
        </mxCell>
        <mxCell id="DNe0UOwhw_iVBu4ZQgte-37" value="1" style="text;html=1;strokeColor=none;fillColor=none;align=center;verticalAlign=middle;whiteSpace=wrap;rounded=0;" parent="1" vertex="1">
          <mxGeometry x="290" y="350" width="60" height="30" as="geometry" />
        </mxCell>
        <mxCell id="DNe0UOwhw_iVBu4ZQgte-38" value="n" style="text;html=1;strokeColor=none;fillColor=none;align=center;verticalAlign=middle;whiteSpace=wrap;rounded=0;" parent="1" vertex="1">
          <mxGeometry x="440" y="350" width="60" height="30" as="geometry" />
        </mxCell>
        <mxCell id="DNe0UOwhw_iVBu4ZQgte-41" style="edgeStyle=none;rounded=0;orthogonalLoop=1;jettySize=auto;html=1;entryX=0.5;entryY=1;entryDx=0;entryDy=0;endArrow=none;endFill=0;" parent="1" source="DNe0UOwhw_iVBu4ZQgte-39" target="DNe0UOwhw_iVBu4ZQgte-26" edge="1">
          <mxGeometry relative="1" as="geometry" />
        </mxCell>
        <mxCell id="DNe0UOwhw_iVBu4ZQgte-39" value="위도" style="ellipse;whiteSpace=wrap;html=1;align=center;" parent="1" vertex="1">
          <mxGeometry x="430" y="495" width="100" height="40" as="geometry" />
        </mxCell>
        <mxCell id="DNe0UOwhw_iVBu4ZQgte-42" style="edgeStyle=none;rounded=0;orthogonalLoop=1;jettySize=auto;html=1;entryX=0.5;entryY=1;entryDx=0;entryDy=0;endArrow=none;endFill=0;" parent="1" source="DNe0UOwhw_iVBu4ZQgte-40" target="DNe0UOwhw_iVBu4ZQgte-26" edge="1">
          <mxGeometry relative="1" as="geometry" />
        </mxCell>
        <mxCell id="DNe0UOwhw_iVBu4ZQgte-40" value="경도" style="ellipse;whiteSpace=wrap;html=1;align=center;" parent="1" vertex="1">
          <mxGeometry x="560" y="495" width="100" height="40" as="geometry" />
        </mxCell>
        <mxCell id="DNe0UOwhw_iVBu4ZQgte-43" value="등록" style="shape=rhombus;perimeter=rhombusPerimeter;whiteSpace=wrap;html=1;align=center;" parent="1" vertex="1">
          <mxGeometry x="670" y="120" width="120" height="60" as="geometry" />
        </mxCell>
        <mxCell id="DNe0UOwhw_iVBu4ZQgte-45" value="" style="endArrow=none;html=1;rounded=0;entryX=0.5;entryY=1;entryDx=0;entryDy=0;exitX=0.5;exitY=0;exitDx=0;exitDy=0;edgeStyle=orthogonalEdgeStyle;" parent="1" source="DNe0UOwhw_iVBu4ZQgte-26" target="DNe0UOwhw_iVBu4ZQgte-43" edge="1">
          <mxGeometry width="50" height="50" relative="1" as="geometry">
            <mxPoint x="720" y="420" as="sourcePoint" />
            <mxPoint x="510" y="340" as="targetPoint" />
          </mxGeometry>
        </mxCell>
        <mxCell id="DNe0UOwhw_iVBu4ZQgte-46" value="" style="endArrow=none;html=1;rounded=0;exitX=1;exitY=0.5;exitDx=0;exitDy=0;entryX=0;entryY=0.5;entryDx=0;entryDy=0;" parent="1" source="DNe0UOwhw_iVBu4ZQgte-1" target="DNe0UOwhw_iVBu4ZQgte-43" edge="1">
          <mxGeometry width="50" height="50" relative="1" as="geometry">
            <mxPoint x="460" y="390" as="sourcePoint" />
            <mxPoint x="640" y="160" as="targetPoint" />
          </mxGeometry>
        </mxCell>
        <mxCell id="DNe0UOwhw_iVBu4ZQgte-47" value="n" style="text;html=1;strokeColor=none;fillColor=none;align=center;verticalAlign=middle;whiteSpace=wrap;rounded=0;" parent="1" vertex="1">
          <mxGeometry x="630" y="120" width="60" height="30" as="geometry" />
        </mxCell>
        <mxCell id="DNe0UOwhw_iVBu4ZQgte-48" value="1" style="text;html=1;strokeColor=none;fillColor=none;align=center;verticalAlign=middle;whiteSpace=wrap;rounded=0;" parent="1" vertex="1">
          <mxGeometry x="720" y="170" width="60" height="30" as="geometry" />
        </mxCell>
        <mxCell id="DNe0UOwhw_iVBu4ZQgte-60" style="edgeStyle=none;rounded=0;orthogonalLoop=1;jettySize=auto;html=1;entryX=0;entryY=0.5;entryDx=0;entryDy=0;endArrow=none;endFill=0;" parent="1" source="DNe0UOwhw_iVBu4ZQgte-50" edge="1">
          <mxGeometry relative="1" as="geometry">
            <mxPoint x="210" y="810" as="targetPoint" />
          </mxGeometry>
        </mxCell>
        <mxCell id="DNe0UOwhw_iVBu4ZQgte-50" value="시작시간" style="ellipse;whiteSpace=wrap;html=1;align=center;fontStyle=4" parent="1" vertex="1">
          <mxGeometry x="50" y="500" width="100" height="40" as="geometry" />
        </mxCell>
        <mxCell id="DNe0UOwhw_iVBu4ZQgte-62" style="edgeStyle=none;rounded=0;orthogonalLoop=1;jettySize=auto;html=1;entryX=0;entryY=0.5;entryDx=0;entryDy=0;endArrow=none;endFill=0;" parent="1" source="DNe0UOwhw_iVBu4ZQgte-51" edge="1">
          <mxGeometry relative="1" as="geometry">
            <mxPoint x="210" y="810" as="targetPoint" />
          </mxGeometry>
        </mxCell>
        <mxCell id="DNe0UOwhw_iVBu4ZQgte-51" value="기온" style="ellipse;whiteSpace=wrap;html=1;align=center;" parent="1" vertex="1">
          <mxGeometry x="50" y="600" width="100" height="40" as="geometry" />
        </mxCell>
        <mxCell id="DNe0UOwhw_iVBu4ZQgte-63" style="edgeStyle=none;rounded=0;orthogonalLoop=1;jettySize=auto;html=1;entryX=0;entryY=0.5;entryDx=0;entryDy=0;endArrow=none;endFill=0;" parent="1" source="DNe0UOwhw_iVBu4ZQgte-52" edge="1">
          <mxGeometry relative="1" as="geometry">
            <mxPoint x="210" y="810" as="targetPoint" />
          </mxGeometry>
        </mxCell>
        <mxCell id="DNe0UOwhw_iVBu4ZQgte-52" value="습도" style="ellipse;whiteSpace=wrap;html=1;align=center;" parent="1" vertex="1">
          <mxGeometry x="50" y="650" width="100" height="40" as="geometry" />
        </mxCell>
        <mxCell id="DNe0UOwhw_iVBu4ZQgte-61" style="edgeStyle=none;rounded=0;orthogonalLoop=1;jettySize=auto;html=1;entryX=0;entryY=0.5;entryDx=0;entryDy=0;endArrow=none;endFill=0;" parent="1" source="DNe0UOwhw_iVBu4ZQgte-53" edge="1">
          <mxGeometry relative="1" as="geometry">
            <mxPoint x="210" y="810" as="targetPoint" />
          </mxGeometry>
        </mxCell>
        <mxCell id="DNe0UOwhw_iVBu4ZQgte-53" value="날씨상태" style="ellipse;whiteSpace=wrap;html=1;align=center;" parent="1" vertex="1">
          <mxGeometry x="50" y="550" width="100" height="40" as="geometry" />
        </mxCell>
        <mxCell id="DNe0UOwhw_iVBu4ZQgte-64" style="edgeStyle=none;rounded=0;orthogonalLoop=1;jettySize=auto;html=1;endArrow=none;endFill=0;" parent="1" source="DNe0UOwhw_iVBu4ZQgte-54" edge="1">
          <mxGeometry relative="1" as="geometry">
            <mxPoint x="210" y="810" as="targetPoint" />
          </mxGeometry>
        </mxCell>
        <mxCell id="DNe0UOwhw_iVBu4ZQgte-54" value="체감온도" style="ellipse;whiteSpace=wrap;html=1;align=center;" parent="1" vertex="1">
          <mxGeometry x="50" y="700" width="100" height="40" as="geometry" />
        </mxCell>
        <mxCell id="DNe0UOwhw_iVBu4ZQgte-65" style="edgeStyle=none;rounded=0;orthogonalLoop=1;jettySize=auto;html=1;entryX=0;entryY=0.5;entryDx=0;entryDy=0;endArrow=none;endFill=0;" parent="1" source="DNe0UOwhw_iVBu4ZQgte-55" edge="1">
          <mxGeometry relative="1" as="geometry">
            <mxPoint x="210" y="810" as="targetPoint" />
          </mxGeometry>
        </mxCell>
        <mxCell id="DNe0UOwhw_iVBu4ZQgte-55" value="풍속" style="ellipse;whiteSpace=wrap;html=1;align=center;" parent="1" vertex="1">
          <mxGeometry x="50" y="750" width="100" height="40" as="geometry" />
        </mxCell>
        <mxCell id="DNe0UOwhw_iVBu4ZQgte-66" style="edgeStyle=none;rounded=0;orthogonalLoop=1;jettySize=auto;html=1;entryX=0;entryY=0.5;entryDx=0;entryDy=0;endArrow=none;endFill=0;" parent="1" source="DNe0UOwhw_iVBu4ZQgte-56" edge="1">
          <mxGeometry relative="1" as="geometry">
            <mxPoint x="210" y="810" as="targetPoint" />
          </mxGeometry>
        </mxCell>
        <mxCell id="DNe0UOwhw_iVBu4ZQgte-56" value="풍향" style="ellipse;whiteSpace=wrap;html=1;align=center;" parent="1" vertex="1">
          <mxGeometry x="50" y="800" width="100" height="40" as="geometry" />
        </mxCell>
        <mxCell id="DNe0UOwhw_iVBu4ZQgte-67" style="edgeStyle=none;rounded=0;orthogonalLoop=1;jettySize=auto;html=1;endArrow=none;endFill=0;" parent="1" source="DNe0UOwhw_iVBu4ZQgte-57" edge="1">
          <mxGeometry relative="1" as="geometry">
            <mxPoint x="210" y="810" as="targetPoint" />
          </mxGeometry>
        </mxCell>
        <mxCell id="DNe0UOwhw_iVBu4ZQgte-57" value="기압" style="ellipse;whiteSpace=wrap;html=1;align=center;" parent="1" vertex="1">
          <mxGeometry x="50" y="850" width="100" height="40" as="geometry" />
        </mxCell>
        <mxCell id="DNe0UOwhw_iVBu4ZQgte-68" style="edgeStyle=none;rounded=0;orthogonalLoop=1;jettySize=auto;html=1;entryX=0;entryY=0.5;entryDx=0;entryDy=0;endArrow=none;endFill=0;" parent="1" source="DNe0UOwhw_iVBu4ZQgte-58" edge="1">
          <mxGeometry relative="1" as="geometry">
            <mxPoint x="210" y="810" as="targetPoint" />
          </mxGeometry>
        </mxCell>
        <mxCell id="DNe0UOwhw_iVBu4ZQgte-58" value="가시거리" style="ellipse;whiteSpace=wrap;html=1;align=center;" parent="1" vertex="1">
          <mxGeometry x="50" y="900" width="100" height="40" as="geometry" />
        </mxCell>
        <mxCell id="DNe0UOwhw_iVBu4ZQgte-79" style="edgeStyle=none;rounded=0;orthogonalLoop=1;jettySize=auto;html=1;startArrow=none;startFill=0;endArrow=none;endFill=0;exitX=0;exitY=0.5;exitDx=0;exitDy=0;" parent="1" source="DNe0UOwhw_iVBu4ZQgte-70" edge="1">
          <mxGeometry relative="1" as="geometry">
            <mxPoint x="630" y="810" as="targetPoint" />
          </mxGeometry>
        </mxCell>
        <mxCell id="DNe0UOwhw_iVBu4ZQgte-70" value="날짜" style="ellipse;whiteSpace=wrap;html=1;align=center;fontStyle=4" parent="1" vertex="1">
          <mxGeometry x="710" y="630" width="100" height="40" as="geometry" />
        </mxCell>
        <mxCell id="DNe0UOwhw_iVBu4ZQgte-80" style="edgeStyle=none;rounded=0;orthogonalLoop=1;jettySize=auto;html=1;entryX=1;entryY=0.5;entryDx=0;entryDy=0;startArrow=none;startFill=0;endArrow=none;endFill=0;exitX=0;exitY=0.5;exitDx=0;exitDy=0;" parent="1" source="DNe0UOwhw_iVBu4ZQgte-71" edge="1">
          <mxGeometry relative="1" as="geometry">
            <mxPoint x="630" y="810" as="targetPoint" />
          </mxGeometry>
        </mxCell>
        <mxCell id="DNe0UOwhw_iVBu4ZQgte-71" value="날씨상태" style="ellipse;whiteSpace=wrap;html=1;align=center;" parent="1" vertex="1">
          <mxGeometry x="710" y="680" width="100" height="40" as="geometry" />
        </mxCell>
        <mxCell id="DNe0UOwhw_iVBu4ZQgte-81" style="edgeStyle=none;rounded=0;orthogonalLoop=1;jettySize=auto;html=1;entryX=1;entryY=0.5;entryDx=0;entryDy=0;startArrow=none;startFill=0;endArrow=none;endFill=0;exitX=0;exitY=0.5;exitDx=0;exitDy=0;" parent="1" source="DNe0UOwhw_iVBu4ZQgte-72" edge="1">
          <mxGeometry relative="1" as="geometry">
            <mxPoint x="630" y="810" as="targetPoint" />
          </mxGeometry>
        </mxCell>
        <mxCell id="DNe0UOwhw_iVBu4ZQgte-72" value="최저기온" style="ellipse;whiteSpace=wrap;html=1;align=center;" parent="1" vertex="1">
          <mxGeometry x="710" y="730" width="100" height="40" as="geometry" />
        </mxCell>
        <mxCell id="DNe0UOwhw_iVBu4ZQgte-82" style="edgeStyle=none;rounded=0;orthogonalLoop=1;jettySize=auto;html=1;entryX=1;entryY=0.5;entryDx=0;entryDy=0;startArrow=none;startFill=0;endArrow=none;endFill=0;" parent="1" source="DNe0UOwhw_iVBu4ZQgte-73" edge="1">
          <mxGeometry relative="1" as="geometry">
            <mxPoint x="630" y="810" as="targetPoint" />
          </mxGeometry>
        </mxCell>
        <mxCell id="DNe0UOwhw_iVBu4ZQgte-73" value="최고기온" style="ellipse;whiteSpace=wrap;html=1;align=center;" parent="1" vertex="1">
          <mxGeometry x="710" y="780" width="100" height="40" as="geometry" />
        </mxCell>
        <mxCell id="DNe0UOwhw_iVBu4ZQgte-83" style="edgeStyle=none;rounded=0;orthogonalLoop=1;jettySize=auto;html=1;entryX=1;entryY=0.5;entryDx=0;entryDy=0;startArrow=none;startFill=0;endArrow=none;endFill=0;" parent="1" source="DNe0UOwhw_iVBu4ZQgte-74" edge="1">
          <mxGeometry relative="1" as="geometry">
            <mxPoint x="630" y="810" as="targetPoint" />
          </mxGeometry>
        </mxCell>
        <mxCell id="DNe0UOwhw_iVBu4ZQgte-74" value="평균습도" style="ellipse;whiteSpace=wrap;html=1;align=center;" parent="1" vertex="1">
          <mxGeometry x="710" y="830" width="100" height="40" as="geometry" />
        </mxCell>
        <mxCell id="DNe0UOwhw_iVBu4ZQgte-84" style="edgeStyle=none;rounded=0;orthogonalLoop=1;jettySize=auto;html=1;entryX=1;entryY=0.5;entryDx=0;entryDy=0;startArrow=none;startFill=0;endArrow=none;endFill=0;exitX=0;exitY=0.5;exitDx=0;exitDy=0;" parent="1" source="DNe0UOwhw_iVBu4ZQgte-75" edge="1">
          <mxGeometry relative="1" as="geometry">
            <mxPoint x="630" y="810" as="targetPoint" />
          </mxGeometry>
        </mxCell>
        <mxCell id="DNe0UOwhw_iVBu4ZQgte-75" value="일출시간" style="ellipse;whiteSpace=wrap;html=1;align=center;" parent="1" vertex="1">
          <mxGeometry x="710" y="980" width="100" height="40" as="geometry" />
        </mxCell>
        <mxCell id="DNe0UOwhw_iVBu4ZQgte-85" style="edgeStyle=none;rounded=0;orthogonalLoop=1;jettySize=auto;html=1;entryX=1;entryY=0.5;entryDx=0;entryDy=0;startArrow=none;startFill=0;endArrow=none;endFill=0;exitX=0;exitY=0.5;exitDx=0;exitDy=0;" parent="1" source="DNe0UOwhw_iVBu4ZQgte-76" edge="1">
          <mxGeometry relative="1" as="geometry">
            <mxPoint x="630" y="810" as="targetPoint" />
          </mxGeometry>
        </mxCell>
        <mxCell id="DNe0UOwhw_iVBu4ZQgte-76" value="일몰시간" style="ellipse;whiteSpace=wrap;html=1;align=center;" parent="1" vertex="1">
          <mxGeometry x="710" y="1030" width="100" height="40" as="geometry" />
        </mxCell>
        <mxCell id="DNe0UOwhw_iVBu4ZQgte-86" value="포함(H)" style="shape=rhombus;perimeter=rhombusPerimeter;whiteSpace=wrap;html=1;align=center;" parent="1" vertex="1">
          <mxGeometry x="200" y="680" width="120" height="60" as="geometry" />
        </mxCell>
        <mxCell id="DNe0UOwhw_iVBu4ZQgte-87" value="포함(D)" style="shape=rhombus;perimeter=rhombusPerimeter;whiteSpace=wrap;html=1;align=center;" parent="1" vertex="1">
          <mxGeometry x="690" y="490" width="120" height="60" as="geometry" />
        </mxCell>
        <mxCell id="DNe0UOwhw_iVBu4ZQgte-88" value="" style="endArrow=none;html=1;rounded=0;entryX=0.5;entryY=0;entryDx=0;entryDy=0;exitX=0.5;exitY=1;exitDx=0;exitDy=0;edgeStyle=orthogonalEdgeStyle;" parent="1" source="DNe0UOwhw_iVBu4ZQgte-26" target="DNe0UOwhw_iVBu4ZQgte-86" edge="1">
          <mxGeometry width="50" height="50" relative="1" as="geometry">
            <mxPoint x="460" y="550" as="sourcePoint" />
            <mxPoint x="510" y="500" as="targetPoint" />
          </mxGeometry>
        </mxCell>
        <mxCell id="DNe0UOwhw_iVBu4ZQgte-89" value="" style="endArrow=none;html=1;rounded=0;exitX=0.5;exitY=1;exitDx=0;exitDy=0;entryX=0.5;entryY=0;entryDx=0;entryDy=0;" parent="1" source="DNe0UOwhw_iVBu4ZQgte-86" edge="1">
          <mxGeometry width="50" height="50" relative="1" as="geometry">
            <mxPoint x="460" y="550" as="sourcePoint" />
            <mxPoint x="260" y="790" as="targetPoint" />
          </mxGeometry>
        </mxCell>
        <mxCell id="DNe0UOwhw_iVBu4ZQgte-90" value="1" style="text;html=1;strokeColor=none;fillColor=none;align=center;verticalAlign=middle;whiteSpace=wrap;rounded=0;" parent="1" vertex="1">
          <mxGeometry x="250" y="650" width="60" height="30" as="geometry" />
        </mxCell>
        <mxCell id="DNe0UOwhw_iVBu4ZQgte-91" value="n" style="text;html=1;strokeColor=none;fillColor=none;align=center;verticalAlign=middle;whiteSpace=wrap;rounded=0;" parent="1" vertex="1">
          <mxGeometry x="250" y="740" width="60" height="30" as="geometry" />
        </mxCell>
        <mxCell id="DNe0UOwhw_iVBu4ZQgte-92" value="" style="endArrow=none;html=1;rounded=0;exitX=1;exitY=0.488;exitDx=0;exitDy=0;exitPerimeter=0;edgeStyle=elbowEdgeStyle;elbow=vertical;" parent="1" source="DNe0UOwhw_iVBu4ZQgte-26" target="DNe0UOwhw_iVBu4ZQgte-87" edge="1">
          <mxGeometry width="50" height="50" relative="1" as="geometry">
            <mxPoint x="610" y="384.5" as="sourcePoint" />
            <mxPoint x="790" y="384.5" as="targetPoint" />
            <Array as="points">
              <mxPoint x="680" y="380" />
            </Array>
          </mxGeometry>
        </mxCell>
        <mxCell id="DNe0UOwhw_iVBu4ZQgte-93" value="" style="endArrow=none;html=1;rounded=0;entryX=0.5;entryY=1;entryDx=0;entryDy=0;exitX=0.5;exitY=0;exitDx=0;exitDy=0;edgeStyle=elbowEdgeStyle;elbow=vertical;" parent="1" target="DNe0UOwhw_iVBu4ZQgte-87" edge="1">
          <mxGeometry width="50" height="50" relative="1" as="geometry">
            <mxPoint x="580" y="790" as="sourcePoint" />
            <mxPoint x="510" y="600" as="targetPoint" />
            <Array as="points">
              <mxPoint x="660" y="620" />
            </Array>
          </mxGeometry>
        </mxCell>
        <mxCell id="DNe0UOwhw_iVBu4ZQgte-94" value="1" style="text;html=1;strokeColor=none;fillColor=none;align=center;verticalAlign=middle;whiteSpace=wrap;rounded=0;" parent="1" vertex="1">
          <mxGeometry x="740" y="465" width="60" height="30" as="geometry" />
        </mxCell>
        <mxCell id="DNe0UOwhw_iVBu4ZQgte-95" value="n" style="text;html=1;strokeColor=none;fillColor=none;align=center;verticalAlign=middle;whiteSpace=wrap;rounded=0;" parent="1" vertex="1">
          <mxGeometry x="740" y="540" width="60" height="30" as="geometry" />
        </mxCell>
        <mxCell id="UV0FL3rAqrB38_GYUXxQ-1" value="소속" style="shape=rhombus;double=1;perimeter=rhombusPerimeter;whiteSpace=wrap;html=1;align=center;" parent="1" vertex="1">
          <mxGeometry x="340" y="355" width="120" height="60" as="geometry" />
        </mxCell>
        <mxCell id="UV0FL3rAqrB38_GYUXxQ-5" style="edgeStyle=none;rounded=0;orthogonalLoop=1;jettySize=auto;html=1;entryX=0.5;entryY=1;entryDx=0;entryDy=0;startArrow=none;startFill=0;endArrow=none;endFill=0;" parent="1" source="UV0FL3rAqrB38_GYUXxQ-2" target="DNe0UOwhw_iVBu4ZQgte-1" edge="1">
          <mxGeometry relative="1" as="geometry" />
        </mxCell>
        <mxCell id="UV0FL3rAqrB38_GYUXxQ-2" value="비밀번호" style="ellipse;whiteSpace=wrap;html=1;align=center;" parent="1" vertex="1">
          <mxGeometry x="170" y="220" width="100" height="40" as="geometry" />
        </mxCell>
        <mxCell id="iWhzMI61DdmHOvtYIJ2A-1" style="edgeStyle=none;rounded=0;orthogonalLoop=1;jettySize=auto;html=1;entryX=0;entryY=0.5;entryDx=0;entryDy=0;endArrow=none;endFill=0;" parent="1" source="iWhzMI61DdmHOvtYIJ2A-2" edge="1">
          <mxGeometry relative="1" as="geometry">
            <mxPoint x="210" y="810" as="targetPoint" />
          </mxGeometry>
        </mxCell>
        <mxCell id="iWhzMI61DdmHOvtYIJ2A-2" value="강수량" style="ellipse;whiteSpace=wrap;html=1;align=center;" parent="1" vertex="1">
          <mxGeometry x="50" y="950" width="100" height="40" as="geometry" />
        </mxCell>
        <mxCell id="iWhzMI61DdmHOvtYIJ2A-3" value="자외선지수" style="ellipse;whiteSpace=wrap;html=1;align=center;" parent="1" vertex="1">
          <mxGeometry x="50" y="990" width="100" height="40" as="geometry" />
        </mxCell>
        <mxCell id="iWhzMI61DdmHOvtYIJ2A-4" value="미세먼지" style="ellipse;whiteSpace=wrap;html=1;align=center;" parent="1" vertex="1">
          <mxGeometry x="50" y="1030" width="100" height="40" as="geometry" />
        </mxCell>
        <mxCell id="iWhzMI61DdmHOvtYIJ2A-5" value="강수량" style="ellipse;whiteSpace=wrap;html=1;align=center;" parent="1" vertex="1">
          <mxGeometry x="710" y="870" width="100" height="40" as="geometry" />
        </mxCell>
        <mxCell id="iWhzMI61DdmHOvtYIJ2A-6" value="미세먼지" style="ellipse;whiteSpace=wrap;html=1;align=center;" parent="1" vertex="1">
          <mxGeometry x="710" y="930" width="100" height="40" as="geometry" />
        </mxCell>
        <mxCell id="iWhzMI61DdmHOvtYIJ2A-8" style="edgeStyle=none;rounded=0;orthogonalLoop=1;jettySize=auto;html=1;entryX=1;entryY=0.5;entryDx=0;entryDy=0;startArrow=none;startFill=0;endArrow=none;endFill=0;exitX=0;exitY=0.5;exitDx=0;exitDy=0;" parent="1" source="iWhzMI61DdmHOvtYIJ2A-6" edge="1">
          <mxGeometry relative="1" as="geometry">
            <mxPoint x="756.8011801872476" y="990.7094171967465" as="sourcePoint" />
            <mxPoint x="630" y="810" as="targetPoint" />
          </mxGeometry>
        </mxCell>
        <mxCell id="iWhzMI61DdmHOvtYIJ2A-9" style="edgeStyle=none;rounded=0;orthogonalLoop=1;jettySize=auto;html=1;startArrow=none;startFill=0;endArrow=none;endFill=0;exitX=0;exitY=0.25;exitDx=0;exitDy=0;exitPerimeter=0;entryX=1;entryY=0.5;entryDx=0;entryDy=0;" parent="1" source="iWhzMI61DdmHOvtYIJ2A-5" edge="1">
          <mxGeometry relative="1" as="geometry">
            <mxPoint x="730.3688005447648" y="847.8057847830046" as="sourcePoint" />
            <mxPoint x="630" y="810" as="targetPoint" />
          </mxGeometry>
        </mxCell>
        <mxCell id="BU3_wk6cc2Ri2fSrF2pi-1" value="일간날씨" style="shape=ext;margin=3;double=1;whiteSpace=wrap;html=1;align=center;" vertex="1" parent="1">
          <mxGeometry x="530" y="790" width="100" height="40" as="geometry" />
        </mxCell>
        <mxCell id="BU3_wk6cc2Ri2fSrF2pi-2" value="시간별날씨" style="shape=ext;margin=3;double=1;whiteSpace=wrap;html=1;align=center;" vertex="1" parent="1">
          <mxGeometry x="210" y="790" width="100" height="40" as="geometry" />
        </mxCell>
      </root>
    </mxGraphModel>
  </diagram>
</mxfile>
